<svg xmlns="http://www.w3.org/2000/svg" width="720" height="680" viewBox="0 0 720 680">
  <defs>
    <style>
      text { font-family: -apple-system, 'Inter', sans-serif; dominant-baseline: central; }
    </style>
  </defs>
  <rect width="720" height="680" rx="12" fill="#121215"/>

  <!-- Triage card -->
  <rect x="40" y="20" width="640" height="640" rx="12" fill="#1e1e22" stroke="#2e2e33"/>

  <!-- Header -->
  <text x="60" y="48" fill="#ffcc44" font-size="11" font-weight="600" letter-spacing="1">SORT NEW TASKS</text>
  <text x="60" y="68" fill="#6b6b76" font-size="13">Review and adjust each task, then accept.</text>

  <!-- === Task 1: vague, AI changed title, needs clarification === -->
  <line x1="60" y1="86" x2="660" y2="86" stroke="#2e2e33"/>

  <!-- Original title struck through -->
  <text x="60" y="108" fill="#6b6b76" font-size="13" text-decoration="line-through">work on the paper</text>
  <!-- Reasoning -->
  <text x="60" y="128" fill="#6b6b76" font-size="12">Writing task — needs more detail on which section.</text>
  <!-- Clarification prompt -->
  <text x="60" y="148" fill="#ff9966" font-size="12">which paper and which section? writing new text, editing, or figures?</text>

  <!-- Row 1: Title (full width) -->
  <rect x="60" y="164" width="600" height="36" rx="8" fill="#121215" stroke="#2e2e33"/>
  <text x="72" y="175" fill="#6b6b76" font-size="9" font-weight="600" letter-spacing="0.5">TITLE</text>
  <text x="72" y="191" fill="#ededf0" font-size="12">write results section for draft</text>

  <!-- Row 2: Category | Priority -->
  <rect x="60" y="208" width="292" height="36" rx="8" fill="#121215" stroke="#2e2e33"/>
  <text x="72" y="219" fill="#6b6b76" font-size="9" font-weight="600" letter-spacing="0.5">CATEGORY</text>
  <text x="72" y="235" fill="#5eaaee" font-size="12">my research</text>
  <rect x="368" y="208" width="292" height="36" rx="8" fill="#121215" stroke="#2e2e33"/>
  <text x="380" y="219" fill="#6b6b76" font-size="9" font-weight="600" letter-spacing="0.5">PRIORITY</text>
  <text x="380" y="235" fill="#ededf0" font-size="12">high</text>

  <!-- Row 3: Due | Deadline -->
  <rect x="60" y="252" width="292" height="36" rx="8" fill="#121215" stroke="#2e2e33"/>
  <text x="72" y="263" fill="#6b6b76" font-size="9" font-weight="600" letter-spacing="0.5">DUE</text>
  <text x="72" y="279" fill="#ededf0" font-size="12">2026-04-04</text>
  <rect x="368" y="252" width="292" height="36" rx="8" fill="#121215" stroke="#2e2e33"/>
  <text x="380" y="263" fill="#6b6b76" font-size="9" font-weight="600" letter-spacing="0.5">DEADLINE</text>
  <text x="380" y="279" fill="#ededf0" font-size="12">soft</text>

  <!-- Row 4: Difficulty | Start -->
  <rect x="60" y="296" width="292" height="36" rx="8" fill="#121215" stroke="#2e2e33"/>
  <text x="72" y="307" fill="#6b6b76" font-size="9" font-weight="600" letter-spacing="0.5">DIFFICULTY</text>
  <text x="72" y="323" fill="#ededf0" font-size="12">hard</text>
  <rect x="368" y="296" width="292" height="36" rx="8" fill="#121215" stroke="#2e2e33"/>
  <text x="380" y="307" fill="#6b6b76" font-size="9" font-weight="600" letter-spacing="0.5">START</text>
  <text x="380" y="323" fill="#6b6b76" font-size="12"></text>

  <!-- Row 5: End | Recurrence -->
  <rect x="60" y="340" width="292" height="36" rx="8" fill="#121215" stroke="#2e2e33"/>
  <text x="72" y="351" fill="#6b6b76" font-size="9" font-weight="600" letter-spacing="0.5">END</text>
  <text x="72" y="367" fill="#6b6b76" font-size="12"></text>
  <rect x="368" y="340" width="292" height="36" rx="8" fill="#121215" stroke="#2e2e33"/>
  <text x="380" y="351" fill="#6b6b76" font-size="9" font-weight="600" letter-spacing="0.5">RECURRENCE</text>
  <text x="380" y="367" fill="#6b6b76" font-size="12">None</text>

  <!-- Row 6: Project -->
  <rect x="60" y="384" width="292" height="36" rx="8" fill="#121215" stroke="#2e2e33"/>
  <text x="72" y="395" fill="#6b6b76" font-size="9" font-weight="600" letter-spacing="0.5">PROJECT</text>
  <text x="72" y="411" fill="#6b6b76" font-size="12"></text>

  <!-- Accept button -->
  <rect x="60" y="432" width="72" height="32" rx="8" fill="#27272b"/>
  <text x="96" y="448" fill="#ededf0" font-size="12" text-anchor="middle">Accept</text>

  <!-- === Task 2: clean, title unchanged === -->
  <line x1="60" y1="480" x2="660" y2="480" stroke="#2e2e33"/>

  <!-- No struck-through title (AI kept it) -->
  <text x="60" y="502" fill="#6b6b76" font-size="12">Concrete code task, well-scoped. Routed to group code.</text>

  <!-- Row 1: Title -->
  <rect x="60" y="518" width="600" height="36" rx="8" fill="#121215" stroke="#2e2e33"/>
  <text x="72" y="529" fill="#6b6b76" font-size="9" font-weight="600" letter-spacing="0.5">TITLE</text>
  <text x="72" y="545" fill="#ededf0" font-size="12">fix broken test in CI pipeline</text>

  <!-- Row 2: Category | Priority -->
  <rect x="60" y="562" width="292" height="36" rx="8" fill="#121215" stroke="#2e2e33"/>
  <text x="72" y="573" fill="#6b6b76" font-size="9" font-weight="600" letter-spacing="0.5">CATEGORY</text>
  <text x="72" y="589" fill="#8b5ecf" font-size="12">group code</text>
  <rect x="368" y="562" width="292" height="36" rx="8" fill="#121215" stroke="#2e2e33"/>
  <text x="380" y="573" fill="#6b6b76" font-size="9" font-weight="600" letter-spacing="0.5">PRIORITY</text>
  <text x="380" y="589" fill="#ededf0" font-size="12">medium</text>

  <!-- Row 3: Due | Deadline -->
  <rect x="60" y="606" width="292" height="36" rx="8" fill="#121215" stroke="#2e2e33"/>
  <text x="72" y="617" fill="#6b6b76" font-size="9" font-weight="600" letter-spacing="0.5">DUE</text>
  <text x="72" y="633" fill="#ededf0" font-size="12">2026-04-07</text>
  <rect x="368" y="606" width="292" height="36" rx="8" fill="#121215" stroke="#2e2e33"/>
  <text x="380" y="617" fill="#6b6b76" font-size="9" font-weight="600" letter-spacing="0.5">DIFFICULTY</text>
  <text x="380" y="633" fill="#ededf0" font-size="12">medium</text>

  <!-- Accept button -->
  <rect x="60" y="650" width="72" height="32" rx="8" fill="#27272b"/>
  <text x="96" y="666" fill="#ededf0" font-size="12" text-anchor="middle">Accept</text>
</svg>
