<svg xmlns="http://www.w3.org/2000/svg" width="720" height="380" viewBox="0 0 720 380">
  <defs>
    <style>
      text { font-family: -apple-system, 'Inter', sans-serif; dominant-baseline: central; }
    </style>
  </defs>
  <rect width="720" height="380" rx="12" fill="#121215"/>

  <!-- Pie chart card -->
  <rect x="40" y="20" width="310" height="200" rx="12" fill="#1e1e22"/>
  <text x="60" y="46" fill="#b0b0c0" font-size="11" font-weight="600" letter-spacing="1">THIS WEEK BY CATEGORY</text>

  <!-- Pie chart using stroke-dasharray on circles -->
  <circle cx="130" cy="130" r="55" fill="none" stroke="#5eaaee" stroke-width="12" stroke-dasharray="86 260" stroke-dashoffset="0"/>
  <circle cx="130" cy="130" r="55" fill="none" stroke="#8b5ecf" stroke-width="12" stroke-dasharray="60 260" stroke-dashoffset="-86"/>
  <circle cx="130" cy="130" r="55" fill="none" stroke="#ffcc44" stroke-width="12" stroke-dasharray="52 260" stroke-dashoffset="-146"/>
  <circle cx="130" cy="130" r="55" fill="none" stroke="#ee8855" stroke-width="12" stroke-dasharray="35 260" stroke-dashoffset="-198"/>
  <circle cx="130" cy="130" r="55" fill="none" stroke="#5ee8c0" stroke-width="12" stroke-dasharray="27 260" stroke-dashoffset="-233"/>

  <!-- Legend -->
  <rect x="210" y="80" width="10" height="10" rx="2" fill="#5eaaee"/>
  <text x="226" y="85" fill="#5eaaee" font-size="11">my research</text>
  <text x="316" y="85" fill="#6b6b76" font-size="11">5</text>

  <rect x="210" y="100" width="10" height="10" rx="2" fill="#8b5ecf"/>
  <text x="226" y="105" fill="#8b5ecf" font-size="11">group code</text>
  <text x="316" y="105" fill="#6b6b76" font-size="11">4</text>

  <rect x="210" y="120" width="10" height="10" rx="2" fill="#ffcc44"/>
  <text x="226" y="125" fill="#ffcc44" font-size="11">my admin</text>
  <text x="316" y="125" fill="#6b6b76" font-size="11">3</text>

  <rect x="210" y="140" width="10" height="10" rx="2" fill="#ee8855"/>
  <text x="226" y="145" fill="#ee8855" font-size="11">my meetings</text>
  <text x="316" y="145" fill="#6b6b76" font-size="11">2</text>

  <rect x="210" y="160" width="10" height="10" rx="2" fill="#5ee8c0"/>
  <text x="226" y="165" fill="#5ee8c0" font-size="11">coursework</text>
  <text x="316" y="165" fill="#6b6b76" font-size="11">2</text>

  <!-- Completion card -->
  <rect x="370" y="20" width="310" height="200" rx="12" fill="#1e1e22"/>
  <text x="390" y="46" fill="#b0b0c0" font-size="11" font-weight="600" letter-spacing="1">COMPLETION RATE</text>
  <text x="640" y="46" fill="#5eeaa0" font-size="24" font-weight="300" text-anchor="end">78%</text>

  <!-- Category completion bars -->
  <text x="390" y="80" fill="#5eaaee" font-size="11">my research</text>
  <text x="650" y="80" fill="#5eeaa0" font-size="11" text-anchor="end">85%</text>
  <rect x="390" y="90" width="270" height="6" rx="3" fill="#2e2e33"/>
  <rect x="390" y="90" width="230" height="6" rx="3" fill="#5eeaa0"/>

  <text x="390" y="114" fill="#8b5ecf" font-size="11">group code</text>
  <text x="650" y="114" fill="#5eeaa0" font-size="11" text-anchor="end">75%</text>
  <rect x="390" y="124" width="270" height="6" rx="3" fill="#2e2e33"/>
  <rect x="390" y="124" width="202" height="6" rx="3" fill="#5eeaa0"/>

  <text x="390" y="148" fill="#ffcc44" font-size="11">my admin</text>
  <text x="650" y="148" fill="#ffcc44" font-size="11" text-anchor="end">60%</text>
  <rect x="390" y="158" width="270" height="6" rx="3" fill="#2e2e33"/>
  <rect x="390" y="158" width="162" height="6" rx="3" fill="#ffcc44"/>

  <text x="390" y="182" fill="#3578c4" font-size="11">group research</text>
  <text x="650" y="182" fill="#ff6b6b" font-size="11" text-anchor="end">40%</text>
  <rect x="390" y="192" width="270" height="6" rx="3" fill="#2e2e33"/>
  <rect x="390" y="192" width="108" height="6" rx="3" fill="#ff6b6b"/>

  <!-- Calendar card -->
  <rect x="40" y="240" width="640" height="120" rx="12" fill="#1e1e22"/>
  <text x="60" y="266" fill="#b0b0c0" font-size="11" font-weight="600" letter-spacing="1">APRIL 2026</text>

  <!-- Day headers -->
  <text x="96" y="286" fill="#6b6b76" font-size="10" text-anchor="middle">Sun</text>
  <text x="176" y="286" fill="#6b6b76" font-size="10" text-anchor="middle">Mon</text>
  <text x="256" y="286" fill="#6b6b76" font-size="10" text-anchor="middle">Tue</text>
  <text x="336" y="286" fill="#6b6b76" font-size="10" text-anchor="middle">Wed</text>
  <text x="416" y="286" fill="#6b6b76" font-size="10" text-anchor="middle">Thu</text>
  <text x="496" y="286" fill="#6b6b76" font-size="10" text-anchor="middle">Fri</text>
  <text x="576" y="286" fill="#6b6b76" font-size="10" text-anchor="middle">Sat</text>

  <!-- Week row -->
  <text x="96" y="310" fill="#6b6b76" font-size="12" text-anchor="middle">5</text>

  <text x="176" y="310" fill="#6b6b76" font-size="12" text-anchor="middle">6</text>
  <text x="176" y="326" fill="#6b6b76" font-size="10" text-anchor="middle">2</text>
  <circle cx="170" cy="338" r="2.5" fill="#5eaaee"/>
  <circle cx="180" cy="338" r="2.5" fill="#ffcc44"/>

  <!-- Today -->
  <rect x="231" y="298" width="50" height="48" rx="6" fill="#27272b" stroke="#b0b0c0" stroke-width="0.5"/>
  <text x="256" y="312" fill="#ededf0" font-size="12" font-weight="600" text-anchor="middle">7</text>
  <text x="256" y="328" fill="#ededf0" font-size="10" font-weight="600" text-anchor="middle">5</text>
  <circle cx="247" cy="340" r="2.5" fill="#5eaaee"/>
  <circle cx="256" cy="340" r="2.5" fill="#8b5ecf"/>
  <circle cx="265" cy="340" r="2.5" fill="#ee8855"/>

  <text x="336" y="310" fill="#6b6b76" font-size="12" text-anchor="middle">8</text>
  <text x="336" y="326" fill="#6b6b76" font-size="10" text-anchor="middle">3</text>
  <circle cx="330" cy="338" r="2.5" fill="#5eaaee"/>
  <circle cx="339" cy="338" r="2.5" fill="#3578c4"/>

  <text x="416" y="310" fill="#6b6b76" font-size="12" text-anchor="middle">9</text>
  <text x="416" y="326" fill="#ededf0" font-size="10" font-weight="600" text-anchor="middle">4</text>
  <circle cx="410" cy="338" r="2.5" fill="#5eaaee"/>
  <circle cx="419" cy="338" r="2.5" fill="#ee8855"/>

  <text x="496" y="310" fill="#6b6b76" font-size="12" text-anchor="middle">10</text>
  <text x="496" y="326" fill="#6b6b76" font-size="10" text-anchor="middle">1</text>
  <circle cx="496" cy="338" r="2.5" fill="#5ee8c0"/>

  <text x="576" y="310" fill="#6b6b76" font-size="12" text-anchor="middle">11</text>
</svg>
