<svg xmlns="http://www.w3.org/2000/svg" width="720" height="520" viewBox="0 0 720 520">
  <defs>
    <style>
      text { font-family: -apple-system, 'Inter', sans-serif; dominant-baseline: central; }
    </style>
  </defs>
  <rect width="720" height="520" rx="12" fill="#121215"/>

  <!-- Header -->
  <text x="40" y="38" fill="#b0b0c0" font-size="14" font-weight="600" letter-spacing="1">pester</text>
  <text x="40" y="58" fill="#6b6b76" font-size="11">5h 40m today · 28h 15m this week · avg 32h/wk</text>

  <!-- Buttons -->
  <rect x="420" y="24" width="90" height="30" rx="6" fill="#1e1e22" stroke="#2e2e33"/>
  <text x="465" y="39" fill="#ededf0" font-size="11" text-anchor="middle">Process new</text>
  <rect x="518" y="24" width="90" height="30" rx="6" fill="#1e1e22" stroke="#2e2e33"/>
  <text x="563" y="39" fill="#ededf0" font-size="11" text-anchor="middle">Plan my day</text>
  <rect x="616" y="24" width="70" height="30" rx="6" fill="#1e1e22" stroke="#2e2e33"/>
  <text x="651" y="39" fill="#ededf0" font-size="11" text-anchor="middle">Wrap up</text>

  <!-- Capture bar -->
  <rect x="40" y="80" width="640" height="44" rx="10" fill="#1e1e22" stroke="#2e2e33"/>
  <text x="60" y="102" fill="#6b6b76" font-size="14">Add a task...</text>

  <!-- Section label -->
  <text x="40" y="152" fill="#b0b0c0" font-size="11" font-weight="600" letter-spacing="1">TODAY</text>

  <!-- Task 1 - high priority, my research -->
  <rect x="48" y="166" width="632" height="48" rx="10" fill="#1e1e22"/>
  <rect x="40" y="166" width="8" height="48" rx="4" fill="#444"/>
  <line x1="42" y1="172" x2="46" y2="166" stroke="#fff" stroke-width="1.5" opacity="0.6"/>
  <line x1="42" y1="179" x2="48" y2="169" stroke="#fff" stroke-width="1.5" opacity="0.6"/>
  <line x1="42" y1="186" x2="48" y2="176" stroke="#fff" stroke-width="1.5" opacity="0.6"/>
  <line x1="42" y1="193" x2="48" y2="183" stroke="#fff" stroke-width="1.5" opacity="0.6"/>
  <line x1="42" y1="200" x2="48" y2="190" stroke="#fff" stroke-width="1.5" opacity="0.6"/>
  <line x1="42" y1="207" x2="48" y2="197" stroke="#fff" stroke-width="1.5" opacity="0.6"/>
  <line x1="44" y1="214" x2="48" y2="204" stroke="#fff" stroke-width="1.5" opacity="0.6"/>
  <circle cx="72" cy="190" r="8" fill="none" stroke="#6b6b76" stroke-width="1.5"/>
  <circle cx="558" cy="190" r="3" fill="#8888a0"/>
  <circle cx="568" cy="190" r="3" fill="#8888a0"/>
  <circle cx="578" cy="190" r="3" fill="#8888a0"/>
  <text x="92" y="190" fill="#ededf0" font-size="14">finish draft of methods section</text>
  <text x="598" y="190" fill="#5eaaee" font-size="11">my research</text>

  <!-- Task 2 - high priority, group code -->
  <rect x="48" y="220" width="632" height="48" rx="10" fill="#1e1e22"/>
  <rect x="40" y="220" width="8" height="48" rx="4" fill="#444"/>
  <line x1="42" y1="226" x2="46" y2="220" stroke="#fff" stroke-width="1.5" opacity="0.6"/>
  <line x1="42" y1="233" x2="48" y2="223" stroke="#fff" stroke-width="1.5" opacity="0.6"/>
  <line x1="42" y1="240" x2="48" y2="230" stroke="#fff" stroke-width="1.5" opacity="0.6"/>
  <line x1="42" y1="247" x2="48" y2="237" stroke="#fff" stroke-width="1.5" opacity="0.6"/>
  <line x1="42" y1="254" x2="48" y2="244" stroke="#fff" stroke-width="1.5" opacity="0.6"/>
  <line x1="42" y1="261" x2="48" y2="251" stroke="#fff" stroke-width="1.5" opacity="0.6"/>
  <circle cx="72" cy="244" r="8" fill="none" stroke="#6b6b76" stroke-width="1.5"/>
  <circle cx="558" cy="244" r="3" fill="#8888a0"/>
  <circle cx="568" cy="244" r="3" fill="#8888a0"/>
  <circle cx="578" cy="244" r="3" fill="#2e2e33"/>
  <text x="92" y="244" fill="#ededf0" font-size="14">review pull request for data pipeline</text>
  <text x="598" y="244" fill="#8b5ecf" font-size="11">group code</text>

  <!-- Task 3 - medium, meeting with time -->
  <rect x="48" y="274" width="632" height="48" rx="10" fill="#1e1e22"/>
  <rect x="40" y="274" width="8" height="48" rx="4" fill="#2a2a2e"/>
  <line x1="42" y1="276" x2="42" y2="280" stroke="#888" stroke-width="1.5"/>
  <line x1="42" y1="285" x2="42" y2="289" stroke="#888" stroke-width="1.5"/>
  <line x1="42" y1="294" x2="42" y2="298" stroke="#888" stroke-width="1.5"/>
  <line x1="42" y1="303" x2="42" y2="307" stroke="#888" stroke-width="1.5"/>
  <line x1="42" y1="312" x2="42" y2="316" stroke="#888" stroke-width="1.5"/>
  <circle cx="72" cy="298" r="8" fill="none" stroke="#6b6b76" stroke-width="1.5"/>
  <circle cx="510" cy="298" r="3" fill="#8888a0"/>
  <circle cx="520" cy="298" r="3" fill="#2e2e33"/>
  <circle cx="530" cy="298" r="3" fill="#2e2e33"/>
  <text x="92" y="298" fill="#ededf0" font-size="14">advisor check-in</text>
  <text x="545" y="292" fill="#6b6b76" font-size="11">2pm–3pm</text>
  <text x="545" y="308" fill="#ee8855" font-size="11">my meetings</text>
  <text x="618" y="298" fill="#6b6b76" font-size="11">↻</text>

  <!-- Task 4 - low, done -->
  <rect x="48" y="328" width="632" height="48" rx="10" fill="#1e1e22"/>
  <rect x="40" y="328" width="8" height="48" rx="4" fill="#666"/>
  <circle cx="72" cy="352" r="8" fill="#5eeaa0" stroke="#5eeaa0" stroke-width="1.5"/>
  <text x="92" y="352" fill="#6b6b76" font-size="14" text-decoration="line-through">submit travel reimbursement</text>
  <text x="598" y="352" fill="#d4a520" font-size="11">my admin</text>

  <!-- Summary cards -->
  <rect x="40" y="398" width="152" height="70" rx="10" fill="#1e1e22"/>
  <text x="56" y="420" fill="#ffcc44" font-size="11" font-weight="600">NEW</text>
  <text x="56" y="448" fill="#ededf0" font-size="22" font-weight="300">3</text>

  <rect x="204" y="398" width="152" height="70" rx="10" fill="#1e1e22"/>
  <text x="220" y="420" fill="#b0b0c0" font-size="11" font-weight="600">THIS WEEK</text>
  <text x="220" y="448" fill="#ededf0" font-size="22" font-weight="300">14</text>

  <rect x="368" y="398" width="152" height="70" rx="10" fill="#1e1e22"/>
  <text x="384" y="420" fill="#b0b0c0" font-size="11" font-weight="600">CATEGORIES</text>
  <text x="384" y="448" fill="#ededf0" font-size="22" font-weight="300">7</text>

  <rect x="532" y="398" width="148" height="70" rx="10" fill="#1e1e22"/>
  <text x="548" y="420" fill="#b0b0c0" font-size="11" font-weight="600">PROJECTS</text>
  <text x="548" y="448" fill="#ededf0" font-size="22" font-weight="300">3</text>
</svg>
