<svg xmlns="http://www.w3.org/2000/svg" width="720" height="520" viewBox="0 0 720 520">
  <defs>
    <style>
      text { font-family: -apple-system, 'Inter', sans-serif; }
    </style>
  </defs>
  <!-- Background -->
  <rect width="720" height="520" rx="12" fill="#121215"/>

  <!-- Header -->
  <text x="40" y="45" fill="#b0b0c0" font-size="14" font-weight="600" letter-spacing="1">pester</text>
  <text x="40" y="62" fill="#6b6b76" font-size="11">3h 12m today · 18h 45m this week · avg 22h/wk</text>

  <!-- Buttons -->
  <rect x="420" y="28" width="90" height="30" rx="6" fill="#1e1e22" stroke="#2e2e33"/>
  <text x="443" y="48" fill="#ededf0" font-size="11">Process new</text>
  <rect x="518" y="28" width="90" height="30" rx="6" fill="#1e1e22" stroke="#2e2e33"/>
  <text x="537" y="48" fill="#ededf0" font-size="11">Plan my day</text>
  <rect x="616" y="28" width="70" height="30" rx="6" fill="#1e1e22" stroke="#2e2e33"/>
  <text x="633" y="48" fill="#ededf0" font-size="11">Wrap up</text>

  <!-- Capture bar -->
  <rect x="40" y="80" width="640" height="44" rx="10" fill="#1e1e22" stroke="#2e2e33"/>
  <text x="60" y="107" fill="#6b6b76" font-size="14">Add a task...</text>

  <!-- Section label -->
  <text x="40" y="155" fill="#b0b0c0" font-size="11" font-weight="600" letter-spacing="1">TOMORROW</text>

  <!-- Task 1 - high priority, group code -->
  <rect x="40" y="168" width="640" height="48" rx="10" fill="#1e1e22"/>
  <!-- Priority strip - diagonal lines for high -->
  <rect x="40" y="168" width="8" height="48" rx="4" fill="#444"/>
  <line x1="42" y1="180" x2="46" y2="168" stroke="#fff" stroke-width="1.5" opacity="0.7"/>
  <line x1="42" y1="188" x2="48" y2="172" stroke="#fff" stroke-width="1.5" opacity="0.7"/>
  <line x1="42" y1="196" x2="48" y2="180" stroke="#fff" stroke-width="1.5" opacity="0.7"/>
  <line x1="42" y1="204" x2="48" y2="188" stroke="#fff" stroke-width="1.5" opacity="0.7"/>
  <line x1="42" y1="212" x2="48" y2="196" stroke="#fff" stroke-width="1.5" opacity="0.7"/>
  <line x1="44" y1="216" x2="48" y2="206" stroke="#fff" stroke-width="1.5" opacity="0.7"/>
  <!-- Checkbox -->
  <circle cx="72" cy="192" r="8" fill="none" stroke="#6b6b76" stroke-width="1.5"/>
  <!-- Difficulty dots -->
  <circle cx="560" cy="189" r="3" fill="#8888a0"/>
  <circle cx="570" cy="189" r="3" fill="#8888a0"/>
  <circle cx="580" cy="189" r="3" fill="#8888a0"/>
  <!-- Content -->
  <text x="92" y="196" fill="#ededf0" font-size="14">review tensor code partner submission</text>
  <text x="600" y="196" fill="#8b5ecf" font-size="11">group code</text>

  <!-- Task 2 - high priority, my research -->
  <rect x="40" y="222" width="640" height="48" rx="10" fill="#1e1e22"/>
  <rect x="40" y="222" width="8" height="48" rx="4" fill="#444"/>
  <line x1="42" y1="234" x2="46" y2="222" stroke="#fff" stroke-width="1.5" opacity="0.7"/>
  <line x1="42" y1="242" x2="48" y2="226" stroke="#fff" stroke-width="1.5" opacity="0.7"/>
  <line x1="42" y1="250" x2="48" y2="234" stroke="#fff" stroke-width="1.5" opacity="0.7"/>
  <line x1="42" y1="258" x2="48" y2="242" stroke="#fff" stroke-width="1.5" opacity="0.7"/>
  <line x1="42" y1="266" x2="48" y2="250" stroke="#fff" stroke-width="1.5" opacity="0.7"/>
  <circle cx="72" cy="246" r="8" fill="none" stroke="#6b6b76" stroke-width="1.5"/>
  <circle cx="560" cy="243" r="3" fill="#8888a0"/>
  <circle cx="570" cy="243" r="3" fill="#8888a0"/>
  <circle cx="580" cy="243" r="3" fill="#2e2e33"/>
  <text x="92" y="250" fill="#ededf0" font-size="14">run BCF decomposition for dimer model</text>
  <text x="600" y="250" fill="#5eaaee" font-size="11">my research</text>

  <!-- Task 3 - medium priority, meeting with time -->
  <rect x="40" y="276" width="640" height="48" rx="10" fill="#1e1e22"/>
  <rect x="40" y="276" width="8" height="48" rx="4" fill="#2a2a2e"/>
  <line x1="42" y1="276" x2="42" y2="280" stroke="#888" stroke-width="1.5"/>
  <line x1="42" y1="284" x2="42" y2="288" stroke="#888" stroke-width="1.5"/>
  <line x1="42" y1="292" x2="42" y2="296" stroke="#888" stroke-width="1.5"/>
  <line x1="42" y1="300" x2="42" y2="304" stroke="#888" stroke-width="1.5"/>
  <line x1="42" y1="308" x2="42" y2="312" stroke="#888" stroke-width="1.5"/>
  <line x1="42" y1="316" x2="42" y2="320" stroke="#888" stroke-width="1.5"/>
  <circle cx="72" cy="300" r="8" fill="none" stroke="#6b6b76" stroke-width="1.5"/>
  <circle cx="540" cy="297" r="3" fill="#8888a0"/>
  <circle cx="550" cy="297" r="3" fill="#2e2e33"/>
  <circle cx="560" cy="297" r="3" fill="#2e2e33"/>
  <text x="92" y="304" fill="#ededf0" font-size="14">project meeting</text>
  <text x="572" y="297" fill="#6b6b76" font-size="11">1pm–2pm</text>
  <text x="572" y="311" fill="#ee8855" font-size="11">my meetings</text>
  <!-- Recurrence icon -->
  <text x="627" y="297" fill="#6b6b76" font-size="10">↻</text>

  <!-- Task 4 - done -->
  <rect x="40" y="330" width="640" height="48" rx="10" fill="#1e1e22"/>
  <rect x="40" y="330" width="8" height="48" rx="4" fill="#666"/>
  <circle cx="72" cy="354" r="8" fill="#5eeaa0" stroke="#5eeaa0" stroke-width="1.5"/>
  <text x="92" y="358" fill="#6b6b76" font-size="14" text-decoration="line-through">recolor fig 1 for manuscript</text>
  <text x="600" y="358" fill="#3578c4" font-size="11">group research</text>

  <!-- Summary cards -->
  <rect x="40" y="398" width="152" height="70" rx="10" fill="#1e1e22"/>
  <text x="56" y="422" fill="#ffcc44" font-size="11" font-weight="600">NEW</text>
  <text x="56" y="450" fill="#ededf0" font-size="22" font-weight="300">3</text>

  <rect x="204" y="398" width="152" height="70" rx="10" fill="#1e1e22"/>
  <text x="220" y="422" fill="#b0b0c0" font-size="11" font-weight="600">THIS WEEK</text>
  <text x="220" y="450" fill="#ededf0" font-size="22" font-weight="300">12</text>

  <rect x="368" y="398" width="152" height="70" rx="10" fill="#1e1e22"/>
  <text x="384" y="422" fill="#b0b0c0" font-size="11" font-weight="600">CATEGORIES</text>
  <text x="384" y="450" fill="#ededf0" font-size="22" font-weight="300">6</text>

  <rect x="532" y="398" width="148" height="70" rx="10" fill="#1e1e22"/>
  <text x="548" y="422" fill="#b0b0c0" font-size="11" font-weight="600">PROJECTS</text>
  <text x="548" y="450" fill="#ededf0" font-size="22" font-weight="300">4</text>
</svg>
