<svg xmlns="http://www.w3.org/2000/svg" width="720" height="520" viewBox="0 0 720 520">
  <defs>
    <style>text { font-family: -apple-system, 'Inter', sans-serif; dominant-baseline: central; }</style>
  </defs>
  <rect width="720" height="520" rx="12" fill="#121215"/>

  <!-- Header -->
  <text x="40" y="38" fill="#b0b0c0" font-size="14" font-weight="600" letter-spacing="1">pester</text>
  <text x="40" y="58" fill="#6b6b76" font-size="11">6h 10m today · 38h 45m this week · avg 44h/wk</text>
  <rect x="420" y="24" width="90" height="30" rx="6" fill="#1e1e22" stroke="#2e2e33"/>
  <text x="465" y="39" fill="#ededf0" font-size="11" text-anchor="middle">Process new</text>
  <rect x="518" y="24" width="90" height="30" rx="6" fill="#1e1e22" stroke="#2e2e33"/>
  <text x="563" y="39" fill="#ededf0" font-size="11" text-anchor="middle">Plan my day</text>
  <rect x="616" y="24" width="70" height="30" rx="6" fill="#1e1e22" stroke="#2e2e33"/>
  <text x="651" y="39" fill="#ededf0" font-size="11" text-anchor="middle">Wrap up</text>

  <!-- Capture bar -->
  <rect x="40" y="80" width="640" height="44" rx="10" fill="#1e1e22" stroke="#2e2e33"/>
  <text x="60" y="102" fill="#6b6b76" font-size="14">Add a task...</text>

  <text x="40" y="152" fill="#b0b0c0" font-size="11" font-weight="600" letter-spacing="1">TODAY</text>

  <!-- Task 1: high priority, my research, overdue -->
  <g>
    <rect x="40" y="166" width="640" height="48" rx="10" fill="#1e1e22"/>
    <!-- Priority strip inside the card -->
    <rect x="40" y="166" width="8" height="48" rx="0" fill="#444"/>
    <rect x="40" y="166" width="0.5" height="48" fill="#1e1e22" rx="0"/>
    <line x1="42" y1="172" x2="46" y2="166" stroke="#fff" stroke-width="1.5" opacity="0.6"/>
    <line x1="42" y1="179" x2="48" y2="169" stroke="#fff" stroke-width="1.5" opacity="0.6"/>
    <line x1="42" y1="186" x2="48" y2="176" stroke="#fff" stroke-width="1.5" opacity="0.6"/>
    <line x1="42" y1="193" x2="48" y2="183" stroke="#fff" stroke-width="1.5" opacity="0.6"/>
    <line x1="42" y1="200" x2="48" y2="190" stroke="#fff" stroke-width="1.5" opacity="0.6"/>
    <line x1="42" y1="207" x2="48" y2="197" stroke="#fff" stroke-width="1.5" opacity="0.6"/>
    <line x1="44" y1="214" x2="48" y2="204" stroke="#fff" stroke-width="1.5" opacity="0.6"/>
    <circle cx="68" cy="190" r="8" fill="none" stroke="#6b6b76" stroke-width="1.5"/>
    <text x="86" y="190" fill="#ededf0" font-size="14">finish draft of methods section</text>
    <circle cx="530" cy="190" r="3" fill="#8888a0"/>
    <circle cx="540" cy="190" r="3" fill="#8888a0"/>
    <circle cx="550" cy="190" r="3" fill="#8888a0"/>
    <text x="564" y="190" fill="#5eaaee" font-size="11">my research</text>
    <text x="647" y="190" fill="#ff6b6b" font-size="11">overdue</text>
  </g>

  <!-- Task 2: high priority, group code -->
  <g>
    <rect x="40" y="220" width="640" height="48" rx="10" fill="#1e1e22"/>
    <rect x="40" y="220" width="8" height="48" rx="0" fill="#444"/>
    <line x1="42" y1="226" x2="46" y2="220" stroke="#fff" stroke-width="1.5" opacity="0.6"/>
    <line x1="42" y1="233" x2="48" y2="223" stroke="#fff" stroke-width="1.5" opacity="0.6"/>
    <line x1="42" y1="240" x2="48" y2="230" stroke="#fff" stroke-width="1.5" opacity="0.6"/>
    <line x1="42" y1="247" x2="48" y2="237" stroke="#fff" stroke-width="1.5" opacity="0.6"/>
    <line x1="42" y1="254" x2="48" y2="244" stroke="#fff" stroke-width="1.5" opacity="0.6"/>
    <line x1="42" y1="261" x2="48" y2="251" stroke="#fff" stroke-width="1.5" opacity="0.6"/>
    <circle cx="68" cy="244" r="8" fill="none" stroke="#6b6b76" stroke-width="1.5"/>
    <text x="86" y="244" fill="#ededf0" font-size="14">review pull request for data pipeline</text>
    <circle cx="555" cy="244" r="3" fill="#8888a0"/>
    <circle cx="565" cy="244" r="3" fill="#8888a0"/>
    <circle cx="575" cy="244" r="3" fill="#2e2e33"/>
    <text x="589" y="244" fill="#8b5ecf" font-size="11">group code</text>
  </g>

  <!-- Task 3: medium priority, meeting -->
  <g>
    <rect x="40" y="274" width="640" height="48" rx="10" fill="#1e1e22"/>
    <rect x="40" y="274" width="8" height="48" rx="0" fill="#2a2a2e"/>
    <line x1="44" y1="278" x2="44" y2="283" stroke="#888" stroke-width="2"/>
    <line x1="44" y1="288" x2="44" y2="293" stroke="#888" stroke-width="2"/>
    <line x1="44" y1="298" x2="44" y2="303" stroke="#888" stroke-width="2"/>
    <line x1="44" y1="308" x2="44" y2="313" stroke="#888" stroke-width="2"/>
    <circle cx="68" cy="298" r="8" fill="none" stroke="#6b6b76" stroke-width="1.5"/>
    <text x="86" y="298" fill="#ededf0" font-size="14">advisor check-in</text>
    <circle cx="460" cy="298" r="3" fill="#8888a0"/>
    <circle cx="470" cy="298" r="3" fill="#2e2e33"/>
    <circle cx="480" cy="298" r="3" fill="#2e2e33"/>
    <text x="494" y="298" fill="#6b6b76" font-size="11">2pm–3pm</text>
    <text x="558" y="298" fill="#6b6b76" font-size="11">↻</text>
    <text x="575" y="298" fill="#ee8855" font-size="11">my meetings</text>
  </g>

  <!-- Task 4: low priority, done -->
  <g>
    <rect x="40" y="328" width="640" height="48" rx="10" fill="#1e1e22"/>
    <rect x="40" y="328" width="8" height="48" rx="0" fill="#666"/>
    <circle cx="68" cy="352" r="8" fill="#5eeaa0" stroke="#5eeaa0" stroke-width="1.5"/>
    <text x="86" y="352" fill="#6b6b76" font-size="14" text-decoration="line-through">submit travel reimbursement</text>
    <text x="598" y="352" fill="#d4a520" font-size="11">my admin</text>
  </g>

  <!-- Summary cards -->
  <rect x="40" y="398" width="152" height="70" rx="10" fill="#1e1e22"/>
  <text x="56" y="420" fill="#ffcc44" font-size="11" font-weight="600">NEW</text>
  <text x="56" y="448" fill="#ededf0" font-size="22" font-weight="300">3</text>
  <rect x="204" y="398" width="152" height="70" rx="10" fill="#1e1e22"/>
  <text x="220" y="420" fill="#b0b0c0" font-size="11" font-weight="600">THIS WEEK</text>
  <text x="220" y="448" fill="#ededf0" font-size="22" font-weight="300">14</text>
  <rect x="368" y="398" width="152" height="70" rx="10" fill="#1e1e22"/>
  <text x="384" y="420" fill="#b0b0c0" font-size="11" font-weight="600">CATEGORIES</text>
  <text x="384" y="448" fill="#ededf0" font-size="22" font-weight="300">7</text>
  <rect x="532" y="398" width="148" height="70" rx="10" fill="#1e1e22"/>
  <text x="548" y="420" fill="#b0b0c0" font-size="11" font-weight="600">PROJECTS</text>
  <text x="548" y="448" fill="#ededf0" font-size="22" font-weight="300">3</text>
</svg>
