<svg xmlns="http://www.w3.org/2000/svg" width="720" height="560" viewBox="0 0 720 560">
  <defs>
    <style>
      text { font-family: -apple-system, 'Inter', sans-serif; dominant-baseline: central; }
    </style>
  </defs>
  <rect width="720" height="560" rx="12" fill="#121215"/>

  <!-- === Pie chart card === -->
  <rect x="40" y="20" width="310" height="200" rx="12" fill="#1e1e22"/>
  <text x="60" y="46" fill="#b0b0c0" font-size="11" font-weight="600" letter-spacing="1">THIS WEEK BY CATEGORY</text>

  <circle cx="130" cy="130" r="55" fill="none" stroke="#5eaaee" stroke-width="12" stroke-dasharray="86 260" stroke-dashoffset="0"/>
  <circle cx="130" cy="130" r="55" fill="none" stroke="#8b5ecf" stroke-width="12" stroke-dasharray="60 260" stroke-dashoffset="-86"/>
  <circle cx="130" cy="130" r="55" fill="none" stroke="#ffcc44" stroke-width="12" stroke-dasharray="52 260" stroke-dashoffset="-146"/>
  <circle cx="130" cy="130" r="55" fill="none" stroke="#ee8855" stroke-width="12" stroke-dasharray="35 260" stroke-dashoffset="-198"/>
  <circle cx="130" cy="130" r="55" fill="none" stroke="#5ee8c0" stroke-width="12" stroke-dasharray="27 260" stroke-dashoffset="-233"/>

  <rect x="210" y="80" width="10" height="10" rx="2" fill="#5eaaee"/>
  <text x="226" y="85" fill="#5eaaee" font-size="11">my research</text>
  <text x="320" y="85" fill="#6b6b76" font-size="11">5</text>
  <rect x="210" y="100" width="10" height="10" rx="2" fill="#8b5ecf"/>
  <text x="226" y="105" fill="#8b5ecf" font-size="11">group code</text>
  <text x="320" y="105" fill="#6b6b76" font-size="11">4</text>
  <rect x="210" y="120" width="10" height="10" rx="2" fill="#ffcc44"/>
  <text x="226" y="125" fill="#ffcc44" font-size="11">my admin</text>
  <text x="320" y="125" fill="#6b6b76" font-size="11">3</text>
  <rect x="210" y="140" width="10" height="10" rx="2" fill="#ee8855"/>
  <text x="226" y="145" fill="#ee8855" font-size="11">my meetings</text>
  <text x="320" y="145" fill="#6b6b76" font-size="11">2</text>
  <rect x="210" y="160" width="10" height="10" rx="2" fill="#5ee8c0"/>
  <text x="226" y="165" fill="#5ee8c0" font-size="11">coursework</text>
  <text x="320" y="165" fill="#6b6b76" font-size="11">2</text>

  <!-- === Completion card === -->
  <rect x="370" y="20" width="310" height="200" rx="12" fill="#1e1e22"/>
  <text x="390" y="46" fill="#b0b0c0" font-size="11" font-weight="600" letter-spacing="1">COMPLETION RATE</text>
  <text x="640" y="46" fill="#5eeaa0" font-size="24" font-weight="300" text-anchor="end">78%</text>

  <text x="390" y="80" fill="#5eaaee" font-size="11">my research</text>
  <text x="650" y="80" fill="#5eeaa0" font-size="11" text-anchor="end">85%</text>
  <rect x="390" y="90" width="270" height="6" rx="3" fill="#2e2e33"/>
  <rect x="390" y="90" width="230" height="6" rx="3" fill="#5eeaa0"/>

  <text x="390" y="114" fill="#8b5ecf" font-size="11">group code</text>
  <text x="650" y="114" fill="#5eeaa0" font-size="11" text-anchor="end">75%</text>
  <rect x="390" y="124" width="270" height="6" rx="3" fill="#2e2e33"/>
  <rect x="390" y="124" width="202" height="6" rx="3" fill="#5eeaa0"/>

  <text x="390" y="148" fill="#ffcc44" font-size="11">my admin</text>
  <text x="650" y="148" fill="#ffcc44" font-size="11" text-anchor="end">60%</text>
  <rect x="390" y="158" width="270" height="6" rx="3" fill="#2e2e33"/>
  <rect x="390" y="158" width="162" height="6" rx="3" fill="#ffcc44"/>

  <text x="390" y="182" fill="#3578c4" font-size="11">group research</text>
  <text x="650" y="182" fill="#ff6b6b" font-size="11" text-anchor="end">40%</text>
  <rect x="390" y="192" width="270" height="6" rx="3" fill="#2e2e33"/>
  <rect x="390" y="192" width="108" height="6" rx="3" fill="#ff6b6b"/>

  <!-- === Monthly calendar card === -->
  <rect x="40" y="240" width="640" height="300" rx="12" fill="#1e1e22"/>
  <text x="60" y="268" fill="#b0b0c0" font-size="11" font-weight="600" letter-spacing="1">APRIL 2026</text>

  <!-- Day headers — 7 columns evenly spaced -->
  <!-- col centers: 100, 190, 280, 370, 460, 550, 640... too wide. Let's use 86px spacing starting at 96 -->
  <!-- cols: 96, 182, 268, 354, 440, 526, 612 -->
  <text x="96" y="292" fill="#6b6b76" font-size="10" text-anchor="middle">Sun</text>
  <text x="182" y="292" fill="#6b6b76" font-size="10" text-anchor="middle">Mon</text>
  <text x="268" y="292" fill="#6b6b76" font-size="10" text-anchor="middle">Tue</text>
  <text x="354" y="292" fill="#6b6b76" font-size="10" text-anchor="middle">Wed</text>
  <text x="440" y="292" fill="#6b6b76" font-size="10" text-anchor="middle">Thu</text>
  <text x="526" y="292" fill="#6b6b76" font-size="10" text-anchor="middle">Fri</text>
  <text x="612" y="292" fill="#6b6b76" font-size="10" text-anchor="middle">Sat</text>

  <!-- Week 1: April 2026 starts on Wednesday -->
  <!-- Wed 1 -->
  <text x="354" y="318" fill="#6b6b76" font-size="12" text-anchor="middle">1</text>
  <text x="354" y="332" fill="#6b6b76" font-size="10" text-anchor="middle">2</text>
  <circle cx="349" cy="342" r="2.5" fill="#5eaaee"/>
  <circle cx="359" cy="342" r="2.5" fill="#ffcc44"/>
  <!-- Thu 2 -->
  <text x="440" y="318" fill="#6b6b76" font-size="12" text-anchor="middle">2</text>
  <text x="440" y="332" fill="#6b6b76" font-size="10" text-anchor="middle">3</text>
  <circle cx="432" cy="342" r="2.5" fill="#5eaaee"/>
  <circle cx="440" cy="342" r="2.5" fill="#8b5ecf"/>
  <circle cx="448" cy="342" r="2.5" fill="#ee8855"/>
  <!-- Fri 3 -->
  <text x="526" y="318" fill="#6b6b76" font-size="12" text-anchor="middle">3</text>
  <text x="526" y="332" fill="#6b6b76" font-size="10" text-anchor="middle">1</text>
  <circle cx="526" cy="342" r="2.5" fill="#5ee8c0"/>
  <!-- Sat 4 -->
  <text x="612" y="318" fill="#6b6b76" font-size="12" text-anchor="middle">4</text>

  <!-- Week 2 -->
  <!-- Sun 5 -->
  <text x="96" y="370" fill="#6b6b76" font-size="12" text-anchor="middle">5</text>
  <!-- Mon 6 -->
  <text x="182" y="370" fill="#6b6b76" font-size="12" text-anchor="middle">6</text>
  <text x="182" y="384" fill="#6b6b76" font-size="10" text-anchor="middle">2</text>
  <circle cx="177" cy="394" r="2.5" fill="#5eaaee"/>
  <circle cx="187" cy="394" r="2.5" fill="#ffcc44"/>
  <!-- Tue 7 — today, highlighted -->
  <rect x="243" y="358" width="50" height="50" rx="6" fill="#27272b" stroke="#b0b0c0" stroke-width="0.5"/>
  <text x="268" y="372" fill="#ededf0" font-size="12" font-weight="600" text-anchor="middle">7</text>
  <text x="268" y="386" fill="#ededf0" font-size="10" font-weight="600" text-anchor="middle">5</text>
  <circle cx="259" cy="397" r="2.5" fill="#5eaaee"/>
  <circle cx="268" cy="397" r="2.5" fill="#8b5ecf"/>
  <circle cx="277" cy="397" r="2.5" fill="#ee8855"/>
  <!-- Wed 8 -->
  <text x="354" y="370" fill="#6b6b76" font-size="12" text-anchor="middle">8</text>
  <text x="354" y="384" fill="#6b6b76" font-size="10" text-anchor="middle">3</text>
  <circle cx="349" cy="394" r="2.5" fill="#3578c4"/>
  <circle cx="359" cy="394" r="2.5" fill="#5eaaee"/>
  <!-- Thu 9 -->
  <text x="440" y="370" fill="#6b6b76" font-size="12" text-anchor="middle">9</text>
  <text x="440" y="384" fill="#ededf0" font-size="10" font-weight="600" text-anchor="middle">4</text>
  <circle cx="435" cy="394" r="2.5" fill="#5eaaee"/>
  <circle cx="445" cy="394" r="2.5" fill="#ee8855"/>
  <!-- Fri 10 -->
  <text x="526" y="370" fill="#6b6b76" font-size="12" text-anchor="middle">10</text>
  <text x="526" y="384" fill="#6b6b76" font-size="10" text-anchor="middle">1</text>
  <circle cx="526" cy="394" r="2.5" fill="#5ee8c0"/>
  <!-- Sat 11 -->
  <text x="612" y="370" fill="#6b6b76" font-size="12" text-anchor="middle">11</text>

  <!-- Week 3 -->
  <text x="96" y="426" fill="#6b6b76" font-size="12" text-anchor="middle">12</text>
  <text x="182" y="426" fill="#6b6b76" font-size="12" text-anchor="middle">13</text>
  <text x="182" y="440" fill="#6b6b76" font-size="10" text-anchor="middle">1</text>
  <circle cx="182" cy="450" r="2.5" fill="#8b5ecf"/>
  <text x="268" y="426" fill="#6b6b76" font-size="12" text-anchor="middle">14</text>
  <text x="268" y="440" fill="#6b6b76" font-size="10" text-anchor="middle">2</text>
  <circle cx="263" cy="450" r="2.5" fill="#5eaaee"/>
  <circle cx="273" cy="450" r="2.5" fill="#ee8855"/>
  <text x="354" y="426" fill="#6b6b76" font-size="12" text-anchor="middle">15</text>
  <text x="440" y="426" fill="#6b6b76" font-size="12" text-anchor="middle">16</text>
  <text x="440" y="440" fill="#6b6b76" font-size="10" text-anchor="middle">3</text>
  <circle cx="432" cy="450" r="2.5" fill="#5eaaee"/>
  <circle cx="440" cy="450" r="2.5" fill="#ffcc44"/>
  <circle cx="448" cy="450" r="2.5" fill="#3578c4"/>
  <text x="526" y="426" fill="#6b6b76" font-size="12" text-anchor="middle">17</text>
  <text x="612" y="426" fill="#6b6b76" font-size="12" text-anchor="middle">18</text>

  <!-- Week 4 -->
  <text x="96" y="480" fill="#6b6b76" font-size="12" text-anchor="middle">19</text>
  <text x="182" y="480" fill="#6b6b76" font-size="12" text-anchor="middle">20</text>
  <text x="268" y="480" fill="#6b6b76" font-size="12" text-anchor="middle">21</text>
  <text x="268" y="494" fill="#6b6b76" font-size="10" text-anchor="middle">2</text>
  <circle cx="263" cy="504" r="2.5" fill="#5eaaee"/>
  <circle cx="273" cy="504" r="2.5" fill="#ee8855"/>
  <text x="354" y="480" fill="#6b6b76" font-size="12" text-anchor="middle">22</text>
  <text x="440" y="480" fill="#6b6b76" font-size="12" text-anchor="middle">23</text>
  <text x="526" y="480" fill="#6b6b76" font-size="12" text-anchor="middle">24</text>
  <text x="612" y="480" fill="#6b6b76" font-size="12" text-anchor="middle">25</text>

  <!-- Week 5 -->
  <text x="96" y="526" fill="#6b6b76" font-size="12" text-anchor="middle">26</text>
  <text x="182" y="526" fill="#6b6b76" font-size="12" text-anchor="middle">27</text>
  <text x="268" y="526" fill="#6b6b76" font-size="12" text-anchor="middle">28</text>
  <text x="354" y="526" fill="#6b6b76" font-size="12" text-anchor="middle">29</text>
  <text x="440" y="526" fill="#6b6b76" font-size="12" text-anchor="middle">30</text>
</svg>
